<?xml version="1.0" encoding="UTF-8" standalone="no"?>
<!DOCTYPE svg PUBLIC "-//W3C//DTD SVG 1.1//EN" "http://www.w3.org/Graphics/SVG/1.1/DTD/svg11.dtd">
<svg width="100%" height="100%" viewBox="0 0 2778 2778" version="1.1" xmlns="http://www.w3.org/2000/svg" xmlns:xlink="http://www.w3.org/1999/xlink" xml:space="preserve" xmlns:serif="http://www.serif.com/" style="fill-rule:evenodd;clip-rule:evenodd;stroke-linecap:round;stroke-miterlimit:46;">
    <g transform="matrix(5.55556,0,0,5.55556,0,-17812.8)">
        <g id="Checklist" transform="matrix(1,0,0,1,0,3206.3)">
            <rect x="0" y="0" width="500" height="500" style="fill:none;"/>
            <clipPath id="_clip1">
                <rect x="0" y="0" width="500" height="500"/>
            </clipPath>
            <g clip-path="url(#_clip1)">
                <g transform="matrix(1,0,0,1,-9.62172,-7.65053)">
                    <g transform="matrix(0.666212,0,0,1.03397,-643.768,17.6743)">
                        <path d="M1175.19,154.685L1454.43,154.685" style="fill:none;stroke:black;stroke-width:36.79px;"/>
                    </g>
                    <g transform="matrix(0.666212,0,0,1.03397,-643.768,90.068)">
                        <path d="M1175.19,154.685L1394.58,154.685" style="fill:none;stroke:black;stroke-width:36.79px;"/>
                    </g>
                    <g transform="matrix(0.265974,0,0,0.412797,-173.414,258.532)">
                        <path d="M1175.19,154.685L1464.62,154.685" style="fill:none;stroke:black;stroke-width:92.16px;"/>
                    </g>
                    <g transform="matrix(0.457602,-0.201495,0.201495,0.457602,49.2278,11.5328)">
                        <path d="M138.039,694.182L177.883,791.072L442.561,636.955" style="fill:none;stroke:black;stroke-width:64px;stroke-linejoin:round;stroke-miterlimit:1.5;"/>
                    </g>
                </g>
            </g>
        </g>
    </g>
</svg>
