<?xml version="1.0" encoding="UTF-8" standalone="no"?>
<!DOCTYPE svg PUBLIC "-//W3C//DTD SVG 1.1//EN" "http://www.w3.org/Graphics/SVG/1.1/DTD/svg11.dtd">
<svg width="100%" height="100%" viewBox="0 0 2778 2778" version="1.1" xmlns="http://www.w3.org/2000/svg" xmlns:xlink="http://www.w3.org/1999/xlink" xml:space="preserve" xmlns:serif="http://www.serif.com/" style="fill-rule:evenodd;clip-rule:evenodd;stroke-linecap:round;stroke-linejoin:round;stroke-miterlimit:1.5;">
    <g transform="matrix(5.55556,0,0,5.55556,-8.6363,-8906.4)">
        <g id="Harth" transform="matrix(1,0,0,1,1.55453,1603.15)">
            <rect x="0" y="0" width="500" height="500" style="fill:none;"/>
            <g transform="matrix(1.45235,0,0,1.45235,-108.564,-1757.21)">
                <path d="M240,1344.11C240,1323.11 245.349,1311.87 256,1301.21C273,1284.21 300,1275.55 322.627,1286.58C349.963,1299.91 359.209,1340.48 340,1364.11C307.16,1404.52 273.501,1444.25 240,1484.11C206.499,1444.25 172.84,1404.52 140,1364.11C120.791,1340.48 130.037,1299.91 157.373,1286.58C180,1275.55 207,1284.21 224,1301.21C234.651,1311.87 240,1323.11 240,1344.11Z" style="fill:none;stroke:black;stroke-width:16.52px;"/>
            </g>
        </g>
    </g>
</svg>
