<?xml version="1.0" encoding="UTF-8" standalone="no"?>
<!DOCTYPE svg PUBLIC "-//W3C//DTD SVG 1.1//EN" "http://www.w3.org/Graphics/SVG/1.1/DTD/svg11.dtd">
<svg width="100%" height="100%" viewBox="0 0 2778 2778" version="1.1" xmlns="http://www.w3.org/2000/svg" xmlns:xlink="http://www.w3.org/1999/xlink" xml:space="preserve" xmlns:serif="http://www.serif.com/" style="fill-rule:evenodd;clip-rule:evenodd;stroke-linecap:round;stroke-linejoin:round;stroke-miterlimit:1;">
    <g transform="matrix(5.55556,0,0,5.55556,0,-20781.6)">
        <g id="Logout" transform="matrix(1,0,0,1,0,3740.69)">
            <rect x="0" y="0" width="500" height="500" style="fill:none;"/>
            <g transform="matrix(0.85573,0,0,0.85573,19.6943,36.0675)">
                <g transform="matrix(1,0,0,1.23933,-14.808,-4651.17)">
                    <path d="M217.421,4025.66L217.421,4087.43L424.729,4087.43L424.729,3821.95L217.421,3821.95L217.421,3883.72" style="fill:none;stroke:black;stroke-width:33.21px;"/>
                </g>
                <g transform="matrix(1.5225,0,0,2.04336,-76.7247,-7873.08)">
                    <path d="M134.693,3975.36L157.323,3990.69L134.693,3975.36L157.323,3960.03L134.693,3975.36L251.555,3975.36L134.693,3975.36Z" style="fill:none;stroke:black;stroke-width:20.75px;"/>
                </g>
            </g>
        </g>
    </g>
</svg>
