<?xml version="1.0" encoding="UTF-8" standalone="no"?>
<!DOCTYPE svg PUBLIC "-//W3C//DTD SVG 1.1//EN" "http://www.w3.org/Graphics/SVG/1.1/DTD/svg11.dtd">
<svg width="100%" height="100%" viewBox="0 0 2778 2778" version="1.1" xmlns="http://www.w3.org/2000/svg" xmlns:xlink="http://www.w3.org/1999/xlink" xml:space="preserve" xmlns:serif="http://www.serif.com/" style="fill-rule:evenodd;clip-rule:evenodd;stroke-linecap:round;stroke-miterlimit:46;">
    <g transform="matrix(5.55556,0,0,5.55556,0,-11875.2)">
        <g id="Ulist" transform="matrix(1,0,0,1,0,2137.54)">
            <rect x="0" y="0" width="500" height="500" style="fill:none;"/>
            <clipPath id="_clip1">
                <rect x="0" y="0" width="500" height="500"/>
            </clipPath>
            <g clip-path="url(#_clip1)">
                <g transform="matrix(0.666212,0,0,1.03397,-581.831,17.6743)">
                    <path d="M1175.19,154.685L1380.29,154.685" style="fill:none;stroke:black;stroke-width:36.79px;"/>
                </g>
                <g transform="matrix(0.666212,0,0,1.03397,-581.831,90.068)">
                    <path d="M1175.19,154.685L1355.02,154.685" style="fill:none;stroke:black;stroke-width:36.79px;"/>
                </g>
                <g transform="matrix(0.666212,0,0,1.03397,-581.831,162.446)">
                    <path d="M1175.19,154.685L1400.51,154.685" style="fill:none;stroke:black;stroke-width:36.79px;"/>
                </g>
                <g transform="matrix(0.55366,0,0,0.777253,21.3443,-1605.27)">
                    <ellipse cx="231.044" cy="2293.83" rx="29.952" ry="21.335"/>
                </g>
                <g transform="matrix(0.55366,0,0,0.777253,21.3443,-1532.89)">
                    <ellipse cx="231.044" cy="2293.83" rx="29.952" ry="21.335"/>
                </g>
                <g transform="matrix(0.55366,0,0,0.777253,21.3443,-1460.5)">
                    <ellipse cx="231.044" cy="2293.83" rx="29.952" ry="21.335"/>
                </g>
            </g>
        </g>
    </g>
</svg>
